<svg xmlns:mydata="http://www.w3.org/2000/svg" mydata:contrastcolor="ffffff" mydata:template="Default" mydata:presentation="2.5" mydata:layouttype="undefined" mydata:specialfontid="undefined" mydata:id1="923" mydata:id2="049" mydata:companyname="Pet Shop" mydata:companytagline="" version="1.1" xmlns="http://www.w3.org/2000/svg" xmlns:xlink="http://www.w3.org/1999/xlink" viewBox="0 45 550 380"><g fill="#fff" fill-rule="none" stroke="none" stroke-width="1" stroke-linecap="butt" stroke-linejoin="miter" stroke-miterlimit="10" stroke-dasharray="" stroke-dashoffset="0" font-family="none" font-weight="none" font-size="none" text-anchor="none" style="mix-blend-mode: normal"><g data-paper-data="{&quot;isGlobalGroup&quot;:true,&quot;bounds&quot;:{&quot;x&quot;:107.48153298987972,&quot;y&quot;:115.00000000000003,&quot;width&quot;:335.03693402024055,&quot;height&quot;:239.99999999999997}}"><g data-paper-data="{&quot;isPrimaryText&quot;:true}" fill-rule="nonzero"><path d="M109.02596,298.30035c1.27039,0.66863 4.34608,-1.13667 5.48275,1.47098c2.40706,5.34902 -0.5349,21.32923 3.74432,36.57395c0.13373,0.33431 0,0.46804 -0.33431,0.46804c-1.13667,0 -4.74726,-2.07275 -5.7502,-1.40412c-1.40412,1.00294 -0.46804,5.68334 0.13373,7.88981c0.13373,0.66863 0.80235,1.00294 1.40412,0.80235c5.41589,-1.60471 10.83177,-2.07275 14.3755,-2.47392c1.47098,-0.13373 4.74726,-0.93608 4.54667,-1.53784c-1.67157,-4.94785 -2.94196,-10.16315 -3.81118,-15.31158c2.8751,2.3402 5.88393,3.34314 8.69216,3.34314c5.14844,0 9.89569,-3.34314 13.03825,-8.0904c3.07569,-4.54667 6.41883,-16.31452 -1.27039,-24.33806c-3.61059,-3.87804 -7.82295,-5.14844 -11.76785,-5.14844c-3.07569,0 -6.01765,0.73549 -8.49158,1.73843c-0.06686,-1.40412 -1.33726,-1.87216 -3.27628,-1.87216c-3.27628,0 -8.55844,1.33726 -12.97138,1.33726c-1.20353,0 -2.3402,-0.06686 -3.34314,-0.33431c-3.14255,-0.73549 -1.87216,6.08451 -0.40118,6.88687zM129.55284,304.58545c1.53784,-2.60765 4.01177,-3.81118 6.55255,-3.81118c2.47392,0 5.01471,1.13667 6.88687,3.00883c2.54079,2.67451 4.34608,8.49158 2.07275,11.56726c-2.40706,3.27628 -6.61942,4.61353 -10.36373,4.61353c-3.14255,0 -5.88393,-1.00294 -6.68628,-2.67451c-0.80235,-1.67157 -0.73549,-8.89275 1.53784,-12.70393z" data-paper-data="{&quot;glyphName&quot;:&quot;P&quot;,&quot;glyphIndex&quot;:0,&quot;firstGlyphOfWord&quot;:true,&quot;word&quot;:1}"></path><path d="M165.72561,341.76117c2.00588,0.40118 4.14549,0.66863 6.35197,0.66863c7.02059,0 14.3755,-2.07275 17.51805,-5.54961c3.20941,-3.54373 1.93902,-6.68628 0.20059,-8.75903c-1.67157,-2.00588 -4.74726,-3.34314 -7.75608,-3.34314c-1.8053,0 -3.54373,0.46804 -5.01471,1.53784c-4.27922,3.14255 -2.00588,6.15138 0.60177,7.28804c0.33431,0.13373 0.66863,0.20059 1.0698,0.20059c2.00588,0 4.61353,-1.8053 5.7502,-1.27039c1.93902,1.0698 -3.00883,5.48275 -8.49158,5.48275c-2.27334,0 -4.61353,-0.73549 -6.55255,-2.80824c-4.81412,-5.01471 -2.20647,-13.10511 -1.20353,-14.50923c4.01177,1.0698 7.68922,1.8053 12.30275,2.60765c1.27039,0.20059 4.94785,1.00294 7.88981,1.00294c1.93902,0 3.54373,-0.33431 4.01177,-1.33726c0.60177,-1.20353 0.60177,-3.20941 0.33431,-4.54667c-0.80235,-5.95079 -2.74137,-10.09628 -8.35785,-12.83766c-2.67451,-1.27039 -5.61648,-1.73843 -8.55844,-1.73843c-12.23589,0 -20.25943,6.61942 -21.3961,19.32335c-1.00294,10.89864 6.35197,17.45119 11.29981,18.58786zM169.80424,316.95507c0.93608,-1.47098 2.20647,-2.74137 3.81118,-3.61059c1.8053,-0.93608 4.14549,-1.53784 6.35197,-1.20353c1.93902,0.33431 2.74137,2.13961 2.00588,3.81118c-1.0698,2.13961 -4.41294,2.27334 -6.55255,2.3402c-0.5349,0 -5.88393,-0.86922 -5.61648,-1.33726z" data-paper-data="{&quot;glyphName&quot;:&quot;e&quot;,&quot;glyphIndex&quot;:1,&quot;word&quot;:1}"></path><path d="M192.13642,307.52741c0.06686,0.20059 0.5349,2.60765 0.80235,2.47392c2.07275,-0.73549 5.01471,-1.33726 8.42471,-1.67157c-2.13961,7.5555 -4.07863,16.84943 -0.93608,24.67237c2.80824,7.02059 8.42471,11.5004 16.04707,11.5004c10.49746,0 15.51217,-10.69805 16.58197,-15.71276c0.73549,-3.47687 1.27039,-9.76197 -5.2153,-9.69511c-3.94491,0.06686 -9.69511,0.93608 -11.90158,4.6804c-0.73549,1.20353 -0.73549,2.60765 -0.13373,3.81118c0.5349,1.13667 1.47098,1.47098 2.47392,1.47098c1.20353,0 2.47392,-0.46804 3.41,-0.46804c0.60177,0 1.0698,0.20059 1.13667,1.00294c0.33431,2.8751 -3.61059,6.68628 -6.82001,6.68628c-1.27039,0 -2.47392,-0.66863 -3.20941,-2.27334c-3.27628,-7.48863 -1.33726,-18.11982 1.27039,-26.07649c4.01177,0.20059 8.02354,0.5349 11.70099,1.13667c3.14255,0.46804 -0.20059,-7.5555 0.80235,-12.0353c0.20059,-0.86922 -0.5349,-1.20353 -1.40412,-1.20353c-1.00294,0 -2.20647,0.40118 -2.47392,0.93608c-0.33431,0.80235 0.66863,2.67451 -0.80235,3.41c-0.40118,0.20059 -0.80235,0.26745 -1.27039,0.40118c-1.40412,0.26745 -2.74137,0.26745 -4.14549,0.33431c0.66863,-2.07275 1.27039,-3.94491 1.53784,-5.34902c0.20059,-1.13667 1.60471,-6.41883 -0.66863,-6.41883c-5.48275,0 -10.63118,-1.27039 -17.58492,-2.94196c-3.14255,-0.73549 -1.87216,6.08451 -0.40118,6.88687c1.27039,0.66863 3.00883,-0.93608 4.61353,1.40412c0.66863,1.0698 0.33431,3.34314 -0.46804,6.35197c-4.41294,0.06686 -8.6253,0.33431 -9.29393,1.00294c-1.53784,1.47098 -2.3402,3.74432 -2.07275,5.68334z" data-paper-data="{&quot;glyphName&quot;:&quot;t&quot;,&quot;glyphIndex&quot;:2,&quot;lastGlyphOfWord&quot;:true,&quot;word&quot;:1}"></path><path d="M253.78392,313.41134c0.26745,1.27039 1.8053,2.3402 4.41294,2.8751c2.60765,0.46804 9.69511,-0.20059 15.37844,0c5.95079,0.20059 4.34608,8.55844 2.54079,12.0353c-2.00588,4.01177 -6.21824,7.88981 -10.89864,7.88981c-2.47392,0 -6.2851,-1.33726 -7.22118,-3.74432c-0.46804,-1.33726 0.06686,-2.67451 1.40412,-3.27628c1.27039,-0.60177 3.20941,2.74137 6.48569,2.74137c3.67745,0 5.48275,-3.34314 5.54961,-6.68628c0.13373,-3.41 -1.60471,-5.7502 -5.14844,-6.01765c-2.74137,-0.20059 -5.54961,0.26745 -8.02354,1.47098c-3.00883,1.47098 -5.81706,4.14549 -6.2851,7.62236c-0.86922,6.15138 4.74726,12.36962 10.29687,13.57315c2.47392,0.5349 5.01471,0.80235 7.5555,0.80235c8.49158,0 16.91629,-3.00883 22.53276,-9.69511c3.07569,-3.74432 4.41294,-9.69511 2.80824,-14.24178c-2.00588,-6.15138 -7.95667,-7.02059 -13.57315,-7.02059c-2.94196,0 -5.95079,0.20059 -8.82589,-0.20059c-3.41,-0.46804 -6.48569,-2.27334 -7.15432,-5.88393c-0.93608,-4.47981 2.67451,-8.22412 6.35197,-10.09628c2.20647,-1.13667 4.81412,-1.73843 7.35491,-1.73843c1.13667,0 2.27334,0.13373 3.34314,0.33431c7.02059,1.27039 7.88981,5.61648 4.94785,6.95373c-1.20353,0.5349 -1.67157,-1.87216 -4.34608,-1.87216c-0.5349,0 -1.13667,0.13373 -1.87216,0.33431c-4.34608,1.40412 -3.41,8.75903 -0.86922,10.63118c0.66863,0.40118 1.53784,0.46804 2.27334,0.46804c5.14844,-0.06686 11.5004,-3.14255 12.23589,-8.6253c0.86922,-6.21824 -4.88098,-11.29981 -10.4306,-12.43648c-1.87216,-0.40118 -3.81118,-0.60177 -5.81706,-0.60177c-3.61059,0 -7.35491,0.60177 -10.69805,1.53784c-9.49452,2.67451 -17.11688,6.55255 -14.30864,22.86708z" data-paper-data="{&quot;glyphName&quot;:&quot;S&quot;,&quot;glyphIndex&quot;:3,&quot;firstGlyphOfWord&quot;:true,&quot;word&quot;:2}"></path><path d="M297.64591,341.35999c1.00294,-0.26745 2.13961,-0.33431 3.34314,-0.33431c4.41294,0 9.69511,1.33726 12.97138,1.33726c2.20647,0 3.47687,-0.5349 3.20941,-2.47392c-0.26745,-1.87216 -0.60177,-3.67745 -0.66863,-5.48275c-0.40118,-7.22118 2.74137,-16.44825 7.02059,-18.32041c0.93608,-0.40118 1.8053,-0.60177 2.54079,-0.60177c6.2851,0 5.14844,13.97432 1.00294,24.40492c-0.20059,0.5349 2.67451,1.33726 4.07863,1.53784c3.14255,0.40118 8.0904,0.86922 12.83766,2.47392c0.60177,0.20059 1.20353,-0.20059 1.40412,-0.80235c0.73549,-2.27334 2.00588,-6.95373 0.80235,-7.88981c-0.86922,-0.73549 -4.34608,1.40412 -5.34902,1.40412c-0.26745,0 -0.40118,-0.13373 -0.26745,-0.5349c2.27334,-6.68628 4.21236,-18.65472 -1.93902,-26.94571c-1.93902,-2.60765 -5.34902,-4.07863 -8.95961,-4.07863c-7.5555,0 -11.36668,5.14844 -14.30864,11.23295c0.06686,-9.22707 1.27039,-16.98315 3.47687,-23.60257c0.86922,-2.60765 -13.50629,-2.3402 -18.85531,-4.01177c-0.66863,-0.20059 -1.33726,0.20059 -1.47098,0.80235c-0.5349,2.27334 -1.53784,6.95373 -0.13373,7.95667c1.00294,0.66863 4.61353,-1.47098 5.7502,-1.47098c0.33431,0 0.46804,0.13373 0.33431,0.5349c-4.27922,15.17786 0.66863,31.15806 -1.73843,36.50709c-1.13667,2.60765 -4.21236,0.80235 -5.48275,1.47098c-1.47098,0.86922 -2.74137,7.62236 0.40118,6.88687z" data-paper-data="{&quot;glyphName&quot;:&quot;h&quot;,&quot;glyphIndex&quot;:4,&quot;word&quot;:2}"></path><path d="M348.39478,330.26076c2.80824,9.56138 12.36962,12.43648 20.99492,12.43648c6.08451,0 13.77374,-1.0698 17.65178,-6.15138c4.07863,-5.28216 5.48275,-12.97138 4.21236,-19.5908c-0.20059,-0.73549 -0.33431,-1.47098 -0.60177,-2.20647c-3.00883,-9.36079 -11.96844,-12.50334 -20.92806,-12.50334c-5.28216,0 -10.83177,1.0698 -14.3755,3.20941c-7.15432,4.41294 -9.22707,16.84943 -6.95373,24.8061zM363.23832,309.86761c0.86922,-0.93608 1.93902,-1.40412 3.14255,-1.40412c4.74726,0 11.16609,6.68628 11.83472,16.98315c0.20059,2.74137 -0.26745,9.1602 -3.27628,10.36373c-0.40118,0.20059 -0.86922,0.26745 -1.40412,0.26745c-3.14255,0 -7.28804,-3.27628 -9.09334,-5.54961c-2.80824,-3.47687 -5.88393,-15.44531 -1.20353,-20.6606z" data-paper-data="{&quot;glyphName&quot;:&quot;o&quot;,&quot;glyphIndex&quot;:5,&quot;word&quot;:2}"></path><path d="M392.79167,354.06392c1.00294,-0.26745 2.20647,-0.33431 3.54373,-0.33431c4.6804,0 10.63118,1.27039 14.30864,1.27039c2.40706,0 3.87804,-0.5349 3.41,-2.40706c-1.47098,-5.61648 -2.40706,-10.83177 -2.94196,-15.57903c4.94785,1.73843 11.43354,2.20647 15.51217,1.87216c4.81412,-0.40118 14.24178,-2.60765 15.71276,-14.84354c1.73843,-14.64295 -9.36079,-18.78845 -18.45413,-18.78845c-3.41,0 -6.55255,0.60177 -8.6253,1.47098c-0.66863,0.33431 -1.33726,0.66863 -2.00588,1.00294c0.26745,-0.80235 0.46804,-1.60471 0.73549,-2.3402c0.86922,-2.67451 -13.50629,-2.40706 -18.85531,-4.01177c-0.60177,-0.20059 -1.27039,0.13373 -1.47098,0.80235c-0.5349,2.20647 -1.47098,6.88687 -0.06686,7.88981c1.00294,0.66863 4.61353,-1.40412 5.7502,-1.40412c0.26745,0 0.40118,0.13373 0.33431,0.46804c-4.34608,15.24472 0.60177,31.22493 -1.8053,36.57395c-1.13667,2.60765 -4.21236,0.80235 -5.41589,1.47098c-1.53784,0.80235 -2.80824,7.62236 0.33431,6.88687zM411.37953,319.36213c1.53784,-3.00883 5.95079,-6.2851 9.49452,-6.2851c5.54961,0 8.0904,8.0904 7.5555,12.63707c-0.60177,6.01765 -5.7502,8.35785 -11.16609,8.35785c-1.93902,0 -5.81706,-0.46804 -6.61942,-2.60765c-0.60177,-1.8053 -1.00294,-8.55844 0.73549,-12.10217z" data-paper-data="{&quot;glyphName&quot;:&quot;p&quot;,&quot;glyphIndex&quot;:6,&quot;lastGlyphOfWord&quot;:true,&quot;word&quot;:2}"></path></g><g data-paper-data="{&quot;isIcon&quot;:&quot;true&quot;,&quot;iconType&quot;:&quot;icon&quot;,&quot;rawIconId&quot;:&quot;1574636&quot;,&quot;selectedEffects&quot;:{&quot;container&quot;:&quot;&quot;,&quot;transformation&quot;:&quot;&quot;,&quot;pattern&quot;:&quot;&quot;},&quot;isDetailed&quot;:false,&quot;iconStyle&quot;:&quot;standalone&quot;,&quot;bounds&quot;:{&quot;x&quot;:205.08077096165374,&quot;y&quot;:115.00000000000003,&quot;width&quot;:139.83845807669246,&quot;height&quot;:139.8384580766925},&quot;fillRule&quot;:&quot;evenodd&quot;,&quot;suitableAsStandaloneIcon&quot;:true}" fill-rule="evenodd"><g data-paper-data="{&quot;isPathIcon&quot;:true}"><path d="M258.97095,254.83846c-12.04704,0 -21.84507,-9.80203 -21.84507,-21.84907c0,-12.04004 9.79803,-21.84507 21.85007,-21.85007h10.19803v-20.39407h-42.24314c-12.05304,0 -21.85007,-9.79703 -21.85007,-21.85007c0,-12.05204 9.79703,-21.84907 21.85007,-21.84907h42.24314v-10.19603c0,-12.04004 9.79703,-21.85007 21.85007,-21.85007c12.04504,0 21.85007,9.79703 21.85007,21.85007c0,12.05204 -9.80503,21.85007 -21.85007,21.85007h-10.19803v20.39307h42.24314c12.04804,0 21.85007,9.79803 21.85007,21.85007c0,12.04504 -9.80203,21.85007 -21.85007,21.85007h-42.24314v10.19603c0,12.04704 -9.80303,21.84907 -21.85507,21.84907zM291.02405,126.65404c-5.62402,0 -10.19803,4.57401 -10.19803,10.19603v10.19603h10.19803c5.62102,0 10.19603,-4.57501 10.19603,-10.19603c0,-5.62202 -4.57501,-10.19603 -10.19603,-10.19603zM226.93084,158.70014c-5.62202,0 -10.19603,4.57401 -10.19603,10.19503c0,5.62402 4.57401,10.19803 10.19603,10.19803h42.24314v-20.39307zM323.06916,190.74525h-42.24314v20.39407h42.24314c5.62202,0 10.19603,-4.57501 10.19603,-10.19603c0,-5.62302 -4.57401,-10.19803 -10.19603,-10.19803zM258.97595,222.79335c-5.62102,0.005 -10.19603,4.57901 -10.19603,10.19603c0,5.62102 4.57001,10.19603 10.19103,10.19603c5.62902,0 10.20303,-4.57501 10.20303,-10.19603v-10.19603z"></path></g></g></g></g><g class="watermark-group" style="opacity:0.040000010281801224"><path class="watermark-path" d="M129.52,370.3a11.88,11.88,0,0,1,2.58,5.58,12,12,0,0,1,.11,3,11.81,11.81,0,0,1-.64,2.93,12.34,12.34,0,0,1-1.41,2.72,11.65,11.65,0,0,1-2.13,2.32,12,12,0,0,1-2.64,1.69,13,13,0,0,1-2.91.9,12.47,12.47,0,0,1-3,.12,12.17,12.17,0,0,1-2.93-.64,11.8,11.8,0,0,1-2.72-1.38,12.19,12.19,0,0,1-4-4.79,11.85,11.85,0,0,1-.89-2.92,12.14,12.14,0,0,1-.13-3,11.54,11.54,0,0,1,.64-2.92,11.67,11.67,0,0,1,3.5-5,11.44,11.44,0,0,1,2.67-1.69,11.64,11.64,0,0,1,2.92-.91,10.71,10.71,0,0,1,3-.12,11.68,11.68,0,0,1,5.66,2,11.7,11.7,0,0,1,2.34,2.12m-1.4,8.76a13,13,0,0,1-1.22,2.32,9.68,9.68,0,0,1-1.81,2,7.44,7.44,0,0,1-2.38,1.37,6.17,6.17,0,0,1-5.11-.46,8.73,8.73,0,0,1-3.85-4.58,6.69,6.69,0,0,1-.34-2.66,6.09,6.09,0,0,1,.77-2.47,7.15,7.15,0,0,1,1.75-2.11,9.58,9.58,0,0,1,1.09-.81,8.23,8.23,0,0,1,1.12-.63,8.14,8.14,0,0,1,1.19-.46,12.71,12.71,0,0,1,1.32-.37l2,2.38a12.83,12.83,0,0,0-1.56.17,7.86,7.86,0,0,0-1.23.32,4.5,4.5,0,0,0-1,.49,6.41,6.41,0,0,0-.93.67,4.49,4.49,0,0,0-1.15,1.39,3.87,3.87,0,0,0-.45,1.58,4.12,4.12,0,0,0,.26,1.63,6.11,6.11,0,0,0,2.36,2.82,4.43,4.43,0,0,0,1.57.53,3.91,3.91,0,0,0,1.62-.17,4.71,4.71,0,0,0,1.57-.89,10.5,10.5,0,0,0,.83-.79,5.71,5.71,0,0,0,.65-.93,10.13,10.13,0,0,0,.54-1.14,12.24,12.24,0,0,0,.44-1.49l2,2.33m-14.46,4.55a8.86,8.86,0,0,0,2.78,2.22,9,9,0,0,0,3.29.94,9.15,9.15,0,0,0,3.39-.37,8.68,8.68,0,0,0,3.11-1.69,8.8,8.8,0,0,0,2.22-2.78,9.15,9.15,0,0,0,1-3.29,8.95,8.95,0,0,0-4.83-8.76,9,9,0,0,0-6.73-.57,9,9,0,0,0-5.33,4.47,8.94,8.94,0,0,0-.57,6.71,8.76,8.76,0,0,0,1.7,3.12"></path><path class="watermark-path" d="M147,349c-.48.12-1.09.31-1.82.57a24.37,24.37,0,0,0-2.4,1A28.35,28.35,0,0,0,140,352a20.72,20.72,0,0,0-2.71,1.94c-.7.59-1.28,1.11-1.74,1.57a15.07,15.07,0,0,0-1.1,1.22,4.09,4.09,0,0,0-.59.92,2.32,2.32,0,0,0-.22.64,1.16,1.16,0,0,0,0,.47,1.83,1.83,0,0,0,.18.29,1.15,1.15,0,0,0,1,.37,5.54,5.54,0,0,0,1.51-.38q.87-.35,1.95-.9l2.26-1.18q1.2-.65,2.49-1.29c.87-.44,1.73-.83,2.59-1.17a18.94,18.94,0,0,1,2.6-.81,9.27,9.27,0,0,1,2.46-.29,6.25,6.25,0,0,1,2.24.49,5.12,5.12,0,0,1,1.89,1.47,6.35,6.35,0,0,1,1.41,2.61,6,6,0,0,1,.09,2.6,8.3,8.3,0,0,1-.9,2.52,17.79,17.79,0,0,1-1.62,2.37,23.92,23.92,0,0,1-2,2.15c-.72.67-1.41,1.29-2.09,1.87a33.79,33.79,0,0,1-5.33,3.7,32.29,32.29,0,0,1-4.91,2.28l-3.61-4.3a21.38,21.38,0,0,0,5.39-1.87,27.2,27.2,0,0,0,5.4-3.56,21.59,21.59,0,0,0,2.38-2.27,8.67,8.67,0,0,0,1.18-1.7,2.32,2.32,0,0,0,.27-1.19,1.34,1.34,0,0,0-.28-.74,1.21,1.21,0,0,0-1-.42,4.32,4.32,0,0,0-1.55.34,15.77,15.77,0,0,0-2,.88c-.72.37-1.48.77-2.27,1.21l-2.45,1.3c-.85.45-1.7.85-2.56,1.21a22.37,22.37,0,0,1-2.54.86,10,10,0,0,1-2.43.32,5.76,5.76,0,0,1-2.2-.45,5,5,0,0,1-1.89-1.45,6.12,6.12,0,0,1-1.31-2.41,6,6,0,0,1-.1-2.41,8.28,8.28,0,0,1,.81-2.38,14.06,14.06,0,0,1,1.49-2.24,22.37,22.37,0,0,1,1.85-2.05q1-1,2-1.77c.7-.59,1.44-1.15,2.23-1.7s1.62-1.06,2.44-1.53,1.63-.91,2.43-1.3,1.58-.75,2.3-1L147,349"></path><path class="watermark-path" d="M186.76,337.57l-10.6-12.63,3.92,18.24-4.66,3.91-17.27-7,10.6,12.63-4.86,4.07-15.09-18,6.59-5.54,18.69,7.52-4.15-19.71,6.57-5.52,15.09,18-4.83,4.05"></path><path class="watermark-path" d="M208.84,313.24l-10,8.42,1.16,4.82L194.56,331l-5.68-25.89,5.42-4.55,24.51,10.09-5.42,4.55-4.55-2m-11.23,3.45,6.57-5.52-8.83-3.87,2.26,9.39"></path><path class="watermark-path" d="M227.49,281.38c-.48.12-1.09.31-1.82.57a24.37,24.37,0,0,0-2.4,1,26.11,26.11,0,0,0-2.7,1.47,20.72,20.72,0,0,0-2.71,1.94c-.7.59-1.28,1.11-1.74,1.57a13.39,13.39,0,0,0-1.1,1.22,4.29,4.29,0,0,0-.59.91,2.48,2.48,0,0,0-.22.65,1.16,1.16,0,0,0,0,.47,1.83,1.83,0,0,0,.18.29,1.15,1.15,0,0,0,1,.37,5.54,5.54,0,0,0,1.51-.38q.87-.34,2-.9l2.26-1.18q1.2-.64,2.49-1.29c.87-.44,1.73-.83,2.59-1.17a18.94,18.94,0,0,1,2.6-.81,9.27,9.27,0,0,1,2.46-.29,6.08,6.08,0,0,1,2.24.49,5.09,5.09,0,0,1,1.89,1.46,6.47,6.47,0,0,1,1.41,2.61,6.07,6.07,0,0,1,.09,2.61,8.3,8.3,0,0,1-.9,2.52,16.32,16.32,0,0,1-1.63,2.36,21.41,21.41,0,0,1-2,2.16c-.72.67-1.41,1.29-2.1,1.86a33.36,33.36,0,0,1-5.32,3.71,31.92,31.92,0,0,1-4.92,2.28l-3.6-4.3a21.38,21.38,0,0,0,5.39-1.87,27.2,27.2,0,0,0,5.4-3.56,21.59,21.59,0,0,0,2.38-2.27,8.67,8.67,0,0,0,1.18-1.7A2.32,2.32,0,0,0,231,293a1.34,1.34,0,0,0-.28-.74,1.21,1.21,0,0,0-1-.42,4.32,4.32,0,0,0-1.55.34,16.54,16.54,0,0,0-2,.88c-.71.37-1.47.77-2.26,1.21l-2.46,1.3c-.84.44-1.7.85-2.55,1.21a24.53,24.53,0,0,1-2.54.86A10,10,0,0,1,214,298a5.76,5.76,0,0,1-2.2-.45,5,5,0,0,1-1.89-1.45,6.12,6.12,0,0,1-1.31-2.41,5.78,5.78,0,0,1-.1-2.41,8,8,0,0,1,.81-2.38,14.61,14.61,0,0,1,1.49-2.25,22.26,22.26,0,0,1,1.85-2q1-1,2-1.77c.7-.59,1.44-1.15,2.23-1.7s1.62-1.06,2.44-1.53,1.63-.91,2.43-1.31,1.58-.74,2.3-1l3.5,4.16"></path><path class="watermark-path" d="M261.64,274.74l-6.29-7.5L243,277.61l6.3,7.5-4.86,4.07-15.09-18,4.85-4.08,5.49,6.55L252,263.3l-5.49-6.55,4.86-4.07,15.09,18-4.86,4.08"></path><path class="watermark-path" d="M272.18,265.9l-15.09-18,4.86-4.08,15.09,18-4.86,4.08"></path><path class="watermark-path" d="M299.65,242.85l-22.51-2.18L287.51,253l-4.85,4.08-15.1-18,5.28-4.43,22.56,2.22L285,224.5l4.83-4.06,15.09,18-5.26,4.42"></path><path class="watermark-path" d="M306.68,205.52a31.88,31.88,0,0,1,5.29-3.66,34.48,34.48,0,0,1,5.14-2.35l3.69,4.39a20.77,20.77,0,0,0-2.37.61,20.47,20.47,0,0,0-2.61,1,25.12,25.12,0,0,0-2.76,1.49,23.9,23.9,0,0,0-2.8,2,20.42,20.42,0,0,0-2.8,2.77,12.77,12.77,0,0,0-1.64,2.52,7,7,0,0,0-.68,2.24,6,6,0,0,0,.66,3.64,8.16,8.16,0,0,0,.94,1.38,9.12,9.12,0,0,0,1.08,1.07,6.39,6.39,0,0,0,1.47.91,6.73,6.73,0,0,0,1.88.48,6.54,6.54,0,0,0,2.28-.18,11.67,11.67,0,0,0,2.74-1.07,19.38,19.38,0,0,0,3.18-2.22c.57-.48,1.06-.92,1.46-1.31a14.57,14.57,0,0,0,1-1.13,11.46,11.46,0,0,0,.81-1.05l.74-1.09-1.82-2.17-5.45,4.57-3.31-3.94,10.31-8.65,7.71,9.19a29,29,0,0,1-1.67,2.43q-1,1.26-2.1,2.52c-.74.84-1.5,1.65-2.3,2.44s-1.58,1.5-2.33,2.14a31,31,0,0,1-3.59,2.61,22.55,22.55,0,0,1-3.64,1.83,15.64,15.64,0,0,1-3.63.89,10.72,10.72,0,0,1-3.49-.15,10.45,10.45,0,0,1-3.28-1.33,12.54,12.54,0,0,1-3-2.67,12,12,0,0,1-2.08-3.44,10.45,10.45,0,0,1-.71-3.5,11.14,11.14,0,0,1,.51-3.51,15.72,15.72,0,0,1,1.56-3.43,21.62,21.62,0,0,1,2.42-3.28,30.3,30.3,0,0,1,3.15-3"></path><path class="watermark-path" d="M336.91,211.59l-15.1-18,4.86-4.08,11.79,14,13.13-11,3.31,3.94-18,15.1"></path><path class="watermark-path" d="M374.54,164.71a12.28,12.28,0,0,1,2.59,4.81,10.44,10.44,0,0,1,0,5,14.62,14.62,0,0,1-2.33,5,25.55,25.55,0,0,1-4.56,4.85,26.07,26.07,0,0,1-5.6,3.67,14.79,14.79,0,0,1-5.38,1.43,10.43,10.43,0,0,1-4.94-.89,13.24,13.24,0,0,1-6.87-8.18,10.48,10.48,0,0,1,0-5,14.51,14.51,0,0,1,2.36-5,25.23,25.23,0,0,1,4.57-4.89,25,25,0,0,1,5.59-3.64,14.45,14.45,0,0,1,5.35-1.43,10.31,10.31,0,0,1,4.93.92,12.22,12.22,0,0,1,4.28,3.38m-4.91,4.11a8.36,8.36,0,0,0-2-1.72,5.5,5.5,0,0,0-2.65-.85,7.72,7.72,0,0,0-3.32.57,14.49,14.49,0,0,0-4,2.52,16.72,16.72,0,0,0-2.38,2.4,10.15,10.15,0,0,0-1.39,2.24,6.71,6.71,0,0,0-.56,2.1,5.69,5.69,0,0,0,.1,1.9,6.21,6.21,0,0,0,.61,1.69,9.85,9.85,0,0,0,1,1.44,10.48,10.48,0,0,0,1.26,1.23,6.67,6.67,0,0,0,1.57.92,6.1,6.1,0,0,0,1.85.41,6.8,6.8,0,0,0,2.15-.2,11.06,11.06,0,0,0,2.45-1,17.67,17.67,0,0,0,2.77-1.94,14.39,14.39,0,0,0,3.18-3.52,7.74,7.74,0,0,0,1.14-3.17,5.54,5.54,0,0,0-.37-2.74,8.52,8.52,0,0,0-1.36-2.3"></path><path class="watermark-path" d="M382.66,141.76A32.3,32.3,0,0,1,388,138.1a34.12,34.12,0,0,1,5.15-2.35l3.69,4.4a19.62,19.62,0,0,0-2.37.6,22.08,22.08,0,0,0-2.61,1,26,26,0,0,0-2.77,1.49,23.9,23.9,0,0,0-2.8,2,21,21,0,0,0-2.8,2.78,13.19,13.19,0,0,0-1.64,2.51,7.29,7.29,0,0,0-.68,2.24,6.36,6.36,0,0,0,.06,2,5.8,5.8,0,0,0,.61,1.68,8.12,8.12,0,0,0,.93,1.38,9.16,9.16,0,0,0,1.08,1.08,6.56,6.56,0,0,0,1.48.9,6,6,0,0,0,1.87.48,6.76,6.76,0,0,0,2.28-.17,12,12,0,0,0,2.74-1.08,18.57,18.57,0,0,0,3.18-2.22c.58-.48,1.06-.92,1.46-1.31s.75-.77,1.05-1.12.57-.72.81-1.06l.73-1.09-1.82-2.17-5.45,4.57-3.3-3.94,10.3-8.65,7.71,9.19a29,29,0,0,1-1.67,2.43q-1,1.26-2.1,2.52c-.73.84-1.5,1.66-2.3,2.44s-1.57,1.5-2.33,2.14a31,31,0,0,1-3.59,2.61,22.15,22.15,0,0,1-3.64,1.83,15.56,15.56,0,0,1-3.62.89,11,11,0,0,1-3.49-.14,10.84,10.84,0,0,1-3.28-1.33,12.82,12.82,0,0,1-3-2.68,12.12,12.12,0,0,1-2.08-3.43A10.71,10.71,0,0,1,375,155a11.18,11.18,0,0,1,.51-3.51,15.51,15.51,0,0,1,1.57-3.43,21.44,21.44,0,0,1,2.42-3.28,30.19,30.19,0,0,1,3.14-3"></path><path class="watermark-path" d="M428.63,119.31a12.26,12.26,0,0,1,2.59,4.82,10.44,10.44,0,0,1,0,5,14.53,14.53,0,0,1-2.34,5,25.29,25.29,0,0,1-4.56,4.86,26,26,0,0,1-5.59,3.67,14.84,14.84,0,0,1-5.38,1.43,10.61,10.61,0,0,1-4.95-.89,12.15,12.15,0,0,1-4.3-3.37,12,12,0,0,1-2.56-4.81,10.48,10.48,0,0,1,0-5,14.39,14.39,0,0,1,2.35-5,27.89,27.89,0,0,1,10.16-8.53,14.49,14.49,0,0,1,5.36-1.43,10.27,10.27,0,0,1,4.92.92,12.21,12.21,0,0,1,4.28,3.37m-4.91,4.12a8.17,8.17,0,0,0-2-1.72,5.58,5.58,0,0,0-2.65-.86,7.86,7.86,0,0,0-3.31.58,14.49,14.49,0,0,0-4,2.52,16.21,16.21,0,0,0-2.38,2.4,9.85,9.85,0,0,0-1.4,2.24,7,7,0,0,0-.56,2.1,6,6,0,0,0,.1,1.9,6.23,6.23,0,0,0,.62,1.69,8.49,8.49,0,0,0,1,1.44,9.18,9.18,0,0,0,1.26,1.23,6.67,6.67,0,0,0,1.57.92,6,6,0,0,0,1.84.41,6.86,6.86,0,0,0,2.16-.2,11.26,11.26,0,0,0,2.45-1,17.62,17.62,0,0,0,2.76-1.94,14.67,14.67,0,0,0,3.19-3.52,7.71,7.71,0,0,0,1.13-3.17,5.53,5.53,0,0,0-.36-2.74,8.55,8.55,0,0,0-1.37-2.3"></path></g></svg>